# xmcd
#
# Track frame offsets: 
#        150
#        12399
#        47108
#        66717
#        91709
#        114286
#        133116
#        158397
#        180214
#        197862
#        220590
#        238155
#        262674
#        281032
#        300080
#        321006
#        338129
#
# Disc length: 4795 seconds
#
# Revision: 0
# Processed by: cddbd v1.5.2PL0 Copyright (c) Steve Scherf et al.
# Submitted via: ExactAudioCopy v1.3
#
DISCID=df12b911
DTITLE=Various Artist - Akella Presents - vol.140 - Rockin' Blues  CD
DTITLE=1
DYEAR=2018
DGENRE=Blues
TTITLE0=Gary Cain - Girl's Too Rich
TTITLE1=Joe Pitts - Rolling With The Blues
TTITLE2=Rocky Athas - Tearin' Me Up
TTITLE3=Mike Goudreau Band - Dear John Song
TTITLE4=Larry McCray - Man On Bended Knee
TTITLE5=Magnus Berg - Hoochie Coochie Man
TTITLE6=Ian Parker - Your Love Is My Home
TTITLE7=Marcus Malone - Living The Blues
TTITLE8=Peter McGraw - What Ashame
TTITLE9=Pete Special - Chicken Heads
TTITLE10=Marc Ford and The Neptune Blues Club - Ghetto Is Everywhere
TTITLE11=Pepe Ahlqvist - Boogie Thing
TTITLE12=Guy Forsyth - My Love Will Never Die
TTITLE13=Mick Clarke - Begging Bowl
TTITLE14=Albert Castiglia - Searching The Desert
TTITLE15=Husky Burnette - Mile Marker 68
TTITLE16=Paul Reddick - Love and Never Know
EXTD=
EXTT0=
EXTT1=
EXTT2=
EXTT3=
EXTT4=
EXTT5=
EXTT6=
EXTT7=
EXTT8=
EXTT9=
EXTT10=
EXTT11=
EXTT12=
EXTT13=
EXTT14=
EXTT15=
EXTT16=
PLAYORDER=
